<?xml version="1.0" encoding="utf-8"?><svg viewBox="0 0 29 15" xmlns="http://www.w3.org/2000/svg" xmlns:xlink="http://www.w3.org/1999/xlink"><style>:root>svg{display:none}:root>svg:target{display:block}</style><svg viewBox="0 0 29 15" id="vk" xmlns="http://www.w3.org/2000/svg"><g clip-path="url(#aa)"><path fill-rule="evenodd" clip-rule="evenodd" d="M14.292 14.393h1.642s.496-.05.749-.301c.233-.231.225-.664.225-.664s-.032-2.028.99-2.327c1.008-.294 2.303 1.96 3.674 2.827 1.037.656 1.826.512 1.826.512l3.667-.047s1.919-.109 1.009-1.498c-.075-.113-.53-1.027-2.727-2.905-2.3-1.965-1.992-1.647.779-5.046 1.687-2.07 2.361-3.334 2.15-3.875-.2-.516-1.441-.38-1.441-.38l-4.13.024S22.4.675 22.172.8c-.222.122-.365.408-.365.408s-.653 1.602-1.525 2.964c-1.839 2.875-2.574 3.026-2.874 2.848-.7-.416-.525-1.671-.525-2.563 0-2.786.459-3.947-.894-4.248-.449-.1-.779-.166-1.927-.176-1.473-.014-2.72.004-3.427.322-.47.212-.832.684-.611.711.273.034.891.154 1.219.564.423.53.408 1.72.408 1.72s.243 3.28-.568 3.688c-.556.279-1.32-.292-2.96-2.9-.84-1.335-1.474-2.812-1.474-2.812s-.122-.276-.34-.424C6.044.724 5.675.667 5.675.667L1.75.69S1.161.705.945.941c-.192.21-.015.644-.015.644s3.072 6.617 6.55 9.951c3.19 3.058 6.812 2.857 6.812 2.857z"/></g><defs><clipPath id="aa"><path d="M0 0h29v15H0z"/></clipPath></defs></svg></svg>